<svg xmlns="http://www.w3.org/2000/svg" viewBox="0 0 720 200" width="720" height="200">
<defs>
  <linearGradient id="hL" x1="0" y1="0" x2="1" y2="1"><stop offset="0%" stop-color="#00d4ff"/><stop offset="30%" stop-color="#6b5cff"/><stop offset="60%" stop-color="#ff6b35"/><stop offset="100%" stop-color="#ffd700"/></linearGradient>
  <linearGradient id="hR" x1="1" y1="0" x2="0" y2="1"><stop offset="0%" stop-color="#00d4ff"/><stop offset="35%" stop-color="#ff8c00"/><stop offset="70%" stop-color="#ff6b35"/><stop offset="100%" stop-color="#ffd700"/></linearGradient>
  <filter id="hg8"><feGaussianBlur stdDeviation="6"/></filter>
  <filter id="hg4"><feGaussianBlur stdDeviation="3"/></filter>
  <filter id="hg2"><feGaussianBlur stdDeviation="1.5"/></filter>
  <linearGradient id="textGrad" x1="0" y1="0" x2="1" y2="0"><stop offset="0%" stop-color="#fff"/><stop offset="100%" stop-color="#ccc"/></linearGradient>
</defs>
<rect width="720" height="200" fill="#0a0a0f" rx="12"/>

<path d="M 130,55 C 65,95 65,130 130,145" fill="none" stroke="url(#hL)" stroke-width="16" stroke-linecap="round" filter="url(#hg8)" opacity="0.3"/>
<path d="M 130,55 C 195,95 195,130 130,145" fill="none" stroke="url(#hR)" stroke-width="16" stroke-linecap="round" filter="url(#hg8)" opacity="0.3"/>
<path d="M 130,55 C 65,95 65,130 130,145" fill="none" stroke="url(#hL)" stroke-width="5" stroke-linecap="round" opacity="0.9"/>
<path d="M 130,55 C 195,95 195,130 130,145" fill="none" stroke="url(#hR)" stroke-width="5" stroke-linecap="round" opacity="0.9"/>
<circle cx="130" cy="145" r="14" fill="#ffd700" opacity="0.3" filter="url(#hg8)"/>
<circle cx="130" cy="145" r="7" fill="#ff8c00" opacity="0.5" filter="url(#hg4)"/>
<circle cx="130" cy="145" r="3.5" fill="#fff" opacity="0.95" filter="url(#hg2)"/>
<circle cx="130" cy="145" r="1.8" fill="#fff"/>
<circle cx="60" cy="90" r="1.8" fill="#ffd700" opacity="0.8" filter="url(#hg2)"/>
<circle cx="198" cy="82" r="1.3" fill="#00d4ff" opacity="0.7" filter="url(#hg2)"/>
<text x="250" y="98" fill="#ddd" font-size="36" font-weight="900" letter-spacing="14" font-family="'Microsoft YaHei','PingFang SC','Noto Sans SC',sans-serif">启元智能</text>
<text x="255" y="128" fill="#666" font-size="13" letter-spacing="6" font-family="'Segoe UI',Arial,sans-serif">QIYUAN INTELLIGENCE</text>
<line x1="252" y1="138" x2="490" y2="138" stroke="#666" stroke-width="0.5" opacity="0.3"/>
</svg>